<svg width="144" height="30" viewBox="0 0 144 30" fill="none" xmlns="http://www.w3.org/2000/svg">
<path d="M17.2867 30L7.00699 2.85315H6.33566V23.4545C6.33566 24.6294 6.44755 25.5385 6.67133 26.1818C6.92308 26.8252 7.41259 27.2867 8.13986 27.5664C8.86713 27.8182 9.95804 27.986 11.4126 28.0699V29.7063C10.8531 29.6503 10.042 29.6224 8.97902 29.6224C7.94406 29.5944 6.82518 29.5804 5.62238 29.5804C4.41958 29.5804 3.32867 29.5944 2.34965 29.6224C1.37063 29.6224 0.587413 29.6503 0 29.7063V28.0699C1.31469 27.986 2.29371 27.8182 2.93706 27.5664C3.60839 27.2867 4.05594 26.8392 4.27972 26.2238C4.53147 25.5804 4.65734 24.6993 4.65734 23.5804V5.24476C4.65734 4.20979 4.54545 3.45454 4.32168 2.97902C4.12587 2.5035 3.69231 2.16783 3.02098 1.97203C2.34965 1.77623 1.34266 1.66434 0 1.63637V0C0.615385 0.027972 1.44056 0.0559437 2.47552 0.0839157C3.51049 0.111888 4.64336 0.125875 5.87413 0.125875C7.04895 0.125875 8.13986 0.111888 9.14685 0.0839157C10.1818 0.0559437 11.049 0.027972 11.7483 0L20.5175 23.4545L19.1748 23.958L27.1888 0C28.1958 0.055944 29.0909 0.0979027 29.8741 0.125875C30.6853 0.125875 31.5105 0.125875 32.3496 0.125875C33.6643 0.125875 34.9231 0.111888 36.1259 0.0839157C37.3287 0.0559437 38.2797 0.027972 38.979 0V1.63637C37.6364 1.66434 36.6294 1.77623 35.958 1.97203C35.3147 2.13986 34.8811 2.47552 34.6573 2.97902C34.4336 3.45454 34.3217 4.20979 34.3217 5.24476V24.4615C34.3217 25.4685 34.4336 26.2238 34.6573 26.7273C34.8811 27.2028 35.3287 27.5385 36 27.7343C36.6713 27.9021 37.6643 28.014 38.979 28.0699V29.7063C38.1958 29.6503 37.1608 29.6224 35.8741 29.6224C34.6154 29.5944 33.2168 29.5804 31.6783 29.5804C30.1119 29.5804 28.6993 29.5944 27.4406 29.6224C26.2098 29.6224 25.2448 29.6503 24.5455 29.7063V28.0699C25.8042 28.014 26.7273 27.9021 27.3147 27.7343C27.9301 27.5385 28.3357 27.1888 28.5315 26.6853C28.7273 26.1818 28.8252 25.4406 28.8252 24.4615V2.22378H28.1958L18.7972 30H17.2867Z" fill="white"/>
<path d="M59.2522 21.5036L49.2662 4.88823C48.5669 3.68544 47.8396 2.87425 47.0844 2.45467C46.3571 2.03509 45.3221 1.81131 43.9795 1.78334V0.146973C45.0984 0.174945 46.2312 0.202916 47.3781 0.230888C48.5529 0.25886 49.7417 0.272847 50.9445 0.272847C52.7068 0.272847 54.2592 0.25886 55.6019 0.230888C56.9445 0.202916 58.0774 0.174945 59.0005 0.146973V1.78334C57.1543 1.81131 55.9795 2.10502 55.476 2.66446C54.9725 3.19592 55.0844 4.07704 55.8117 5.30781L62.7347 16.8463L61.2662 17.6435L66.3431 8.28683C67.518 6.13299 67.8676 4.53858 67.3921 3.50362C66.9166 2.44068 65.6019 1.86725 63.448 1.78334V0.146973C64.2033 0.174945 65.1403 0.202916 66.2592 0.230888C67.4061 0.25886 68.7207 0.272847 70.2033 0.272847C71.0984 0.272847 71.9375 0.25886 72.7208 0.230888C73.5319 0.202916 74.3851 0.174945 75.2802 0.146973V1.78334C74.3012 1.9232 73.462 2.17495 72.7627 2.53858C72.0634 2.87425 71.4201 3.36376 70.8326 4.00711C70.2732 4.65047 69.7138 5.50362 69.1543 6.56655L60.9725 21.5036H59.2522ZM51.8256 29.8533V28.2169C53.504 28.1889 54.7487 28.077 55.5599 27.8812C56.3991 27.6854 56.9445 27.3078 57.1963 26.7484C57.476 26.1889 57.6159 25.3638 57.6159 24.2728V16.8043L60.8047 19.6994L63.1543 16.0071V24.2728C63.1543 25.3638 63.2942 26.1889 63.5739 26.7484C63.8536 27.3078 64.3991 27.6854 65.2103 27.8812C66.0494 28.077 67.2942 28.1889 68.9445 28.2169V29.8533C68.0494 29.7973 66.8466 29.7693 65.3361 29.7693C63.8256 29.7414 62.2033 29.7274 60.469 29.7274C58.6228 29.7274 56.9445 29.7414 55.434 29.7693C53.9515 29.7693 52.7487 29.7973 51.8256 29.8533Z" fill="white"/>
<path d="M104.657 30L87.2863 3.77622H86.615V23.4545C86.615 24.6294 86.7268 25.5385 86.9506 26.1818C87.2024 26.8252 87.6779 27.2867 88.3772 27.5664C89.1045 27.8182 90.2094 27.986 91.6919 28.0699V29.7063C91.1324 29.6503 90.3352 29.6224 89.3003 29.6224C88.2653 29.5944 87.1464 29.5804 85.9436 29.5804C84.7408 29.5804 83.6359 29.5944 82.6289 29.6224C81.6499 29.6224 80.8667 29.6503 80.2793 29.7063V28.0699C81.594 27.986 82.587 27.8182 83.2583 27.5664C83.9296 27.2867 84.3772 26.8392 84.601 26.2238C84.8247 25.5804 84.9366 24.6993 84.9366 23.5804V5.24476C84.9366 4.23776 84.8247 3.4965 84.601 3.02098C84.4052 2.51748 83.9716 2.16783 83.3003 1.97203C82.6569 1.77623 81.6499 1.66434 80.2793 1.63637V0C80.9227 0.027972 81.7618 0.0559437 82.7968 0.0839157C83.8317 0.111888 84.9646 0.125875 86.1954 0.125875C87.2583 0.125875 88.2233 0.111888 89.0905 0.0839157C89.9856 0.0559437 90.7548 0.027972 91.3982 0L104.321 19.6783H104.951V6.25175C104.951 5.07692 104.825 4.16783 104.573 3.52448C104.349 2.88112 103.874 2.41958 103.146 2.13986C102.447 1.86014 101.356 1.69231 99.8737 1.63637V0C100.461 0.027972 101.272 0.0559437 102.307 0.0839157C103.342 0.111888 104.447 0.125875 105.622 0.125875C106.825 0.125875 107.916 0.111888 108.895 0.0839157C109.902 0.0559437 110.699 0.027972 111.286 0V1.63637C109.972 1.69231 108.979 1.86014 108.307 2.13986C107.664 2.41958 107.216 2.86713 106.965 3.48252C106.741 4.0979 106.629 4.97902 106.629 6.12587V30H104.657Z" fill="white"/>
<path d="M116.287 29.8533V28.2169C117.658 28.161 118.665 28.0491 119.308 27.8812C119.979 27.7134 120.413 27.3777 120.609 26.8742C120.833 26.3707 120.944 25.6155 120.944 24.6085V5.39173C120.944 4.38474 120.833 3.64348 120.609 3.16795C120.413 2.66446 119.979 2.31481 119.308 2.119C118.665 1.9232 117.658 1.81131 116.287 1.78334V0.146973C117.798 0.174945 119.756 0.202916 122.161 0.230888C124.595 0.25886 127.434 0.272847 130.679 0.272847C131.826 0.272847 132.93 0.272847 133.993 0.272847C135.084 0.244875 136.105 0.230888 137.056 0.230888C138.007 0.202916 138.861 0.174945 139.616 0.146973C139.644 1.62949 139.714 3.09802 139.826 4.55257C139.937 6.00711 140.105 7.44767 140.329 8.87425H138.651C138.259 7.13998 137.77 5.76935 137.182 4.76236C136.623 3.72739 135.896 3.00012 135 2.58054C134.133 2.13299 133.056 1.90921 131.77 1.90921H126.483V24.9442C126.483 25.8113 126.553 26.4826 126.693 26.9582C126.861 27.4337 127.168 27.7414 127.616 27.8812C128.091 28.0211 128.791 28.091 129.714 28.091H131.098C132.777 28.091 134.175 27.8113 135.294 27.2519C136.441 26.6924 137.406 25.7694 138.189 24.4826C139 23.168 139.742 21.3917 140.413 19.154H142.133C141.909 21.0281 141.742 22.8463 141.63 24.6085C141.518 26.3428 141.476 28.091 141.504 29.8533C140.161 29.7973 138.595 29.7693 136.805 29.7693C135.014 29.7414 132.916 29.7274 130.511 29.7274C127.322 29.7274 124.525 29.7414 122.119 29.7693C119.742 29.7693 117.798 29.7973 116.287 29.8533ZM125.14 15.7134V14.119H132.651V15.7134H125.14ZM133.951 21.126C133.812 19.8113 133.56 18.7624 133.196 17.9791C132.861 17.1959 132.357 16.6225 131.686 16.2589C131.042 15.8952 130.217 15.7134 129.21 15.7134V14.119C130.609 14.119 131.672 13.6854 132.399 12.8183C133.126 11.9512 133.588 10.5805 133.784 8.70641H135.336C135.224 10.3288 135.168 11.5875 135.168 12.4826C135.196 13.3777 135.21 14.1889 135.21 14.9162C135.21 15.5036 135.21 16.091 135.21 16.6784C135.238 17.2379 135.266 17.8812 135.294 18.6085C135.35 19.3078 135.406 20.147 135.462 21.126H133.951Z" fill="white"/>
</svg>
