<svg width="144" height="55" viewBox="0 0 144 55" fill="none" xmlns="http://www.w3.org/2000/svg">
<path d="M17.2867 30L7.00699 2.85315H6.33566V23.4545C6.33566 24.6294 6.44755 25.5385 6.67133 26.1818C6.92308 26.8252 7.41259 27.2867 8.13986 27.5664C8.86713 27.8182 9.95804 27.986 11.4126 28.0699V29.7063C10.8531 29.6503 10.042 29.6224 8.97902 29.6224C7.94406 29.5944 6.82518 29.5804 5.62238 29.5804C4.41958 29.5804 3.32867 29.5944 2.34965 29.6224C1.37063 29.6224 0.587413 29.6503 0 29.7063V28.0699C1.31469 27.986 2.29371 27.8182 2.93706 27.5664C3.60839 27.2867 4.05594 26.8392 4.27972 26.2238C4.53147 25.5804 4.65734 24.6993 4.65734 23.5804V5.24476C4.65734 4.20979 4.54545 3.45454 4.32168 2.97902C4.12587 2.5035 3.69231 2.16783 3.02098 1.97203C2.34965 1.77623 1.34266 1.66434 0 1.63637V0C0.615385 0.027972 1.44056 0.0559437 2.47552 0.0839157C3.51049 0.111888 4.64336 0.125875 5.87413 0.125875C7.04895 0.125875 8.13986 0.111888 9.14685 0.0839157C10.1818 0.0559437 11.049 0.027972 11.7483 0L20.5175 23.4545L19.1748 23.958L27.1888 0C28.1958 0.055944 29.0909 0.0979027 29.8741 0.125875C30.6853 0.125875 31.5105 0.125875 32.3496 0.125875C33.6643 0.125875 34.9231 0.111888 36.1259 0.0839157C37.3287 0.0559437 38.2797 0.027972 38.979 0V1.63637C37.6364 1.66434 36.6294 1.77623 35.958 1.97203C35.3147 2.13986 34.8811 2.47552 34.6573 2.97902C34.4336 3.45454 34.3217 4.20979 34.3217 5.24476V24.4615C34.3217 25.4685 34.4336 26.2238 34.6573 26.7273C34.8811 27.2028 35.3287 27.5385 36 27.7343C36.6713 27.9021 37.6643 28.014 38.979 28.0699V29.7063C38.1958 29.6503 37.1608 29.6224 35.8741 29.6224C34.6154 29.5944 33.2168 29.5804 31.6783 29.5804C30.1119 29.5804 28.6993 29.5944 27.4406 29.6224C26.2098 29.6224 25.2448 29.6503 24.5455 29.7063V28.0699C25.8042 28.014 26.7273 27.9021 27.3147 27.7343C27.9301 27.5385 28.3357 27.1888 28.5315 26.6853C28.7273 26.1818 28.8252 25.4406 28.8252 24.4615V2.22378H28.1958L18.7972 30H17.2867Z" fill="white"/>
<path d="M59.2522 21.5035L49.2662 4.88811C48.5669 3.68531 47.8396 2.87412 47.0844 2.45454C46.3571 2.03496 45.3221 1.81119 43.9795 1.78322V0.146851C45.0984 0.174823 46.2312 0.202794 47.3781 0.230766C48.5529 0.258738 49.7417 0.272725 50.9445 0.272725C52.7068 0.272725 54.2592 0.258738 55.6019 0.230766C56.9445 0.202794 58.0774 0.174823 59.0005 0.146851V1.78322C57.1543 1.81119 55.9795 2.10489 55.476 2.66433C54.9725 3.1958 55.0844 4.07692 55.8117 5.30769L62.7347 16.8462L61.2662 17.6434L66.3431 8.28671C67.518 6.13287 67.8676 4.53846 67.3921 3.5035C66.9166 2.44056 65.6019 1.86713 63.448 1.78322V0.146851C64.2033 0.174823 65.1403 0.202794 66.2592 0.230766C67.4061 0.258738 68.7207 0.272725 70.2033 0.272725C71.0984 0.272725 71.9375 0.258738 72.7208 0.230766C73.5319 0.202794 74.3851 0.174823 75.2802 0.146851V1.78322C74.3012 1.92308 73.462 2.17482 72.7627 2.53846C72.0634 2.87413 71.4201 3.36363 70.8326 4.00699C70.2732 4.65035 69.7138 5.50349 69.1543 6.56643L60.9725 21.5035H59.2522ZM51.8256 29.8531V28.2168C53.504 28.1888 54.7487 28.0769 55.5599 27.8811C56.3991 27.6853 56.9445 27.3077 57.1963 26.7483C57.476 26.1888 57.6159 25.3636 57.6159 24.2727V16.8042L60.8047 19.6993L63.1543 16.007V24.2727C63.1543 25.3636 63.2942 26.1888 63.5739 26.7483C63.8536 27.3077 64.3991 27.6853 65.2103 27.8811C66.0494 28.0769 67.2942 28.1888 68.9445 28.2168V29.8531C68.0494 29.7972 66.8466 29.7692 65.3361 29.7692C63.8256 29.7413 62.2033 29.7273 60.469 29.7273C58.6228 29.7273 56.9445 29.7413 55.434 29.7692C53.9515 29.7692 52.7487 29.7972 51.8256 29.8531Z" fill="white"/>
<path d="M104.657 30L87.2863 3.77622H86.615V23.4545C86.615 24.6294 86.7268 25.5385 86.9506 26.1818C87.2024 26.8252 87.6779 27.2867 88.3772 27.5664C89.1045 27.8182 90.2094 27.986 91.6919 28.0699V29.7063C91.1324 29.6503 90.3352 29.6224 89.3003 29.6224C88.2653 29.5944 87.1464 29.5804 85.9436 29.5804C84.7408 29.5804 83.6359 29.5944 82.6289 29.6224C81.6499 29.6224 80.8667 29.6503 80.2793 29.7063V28.0699C81.594 27.986 82.587 27.8182 83.2583 27.5664C83.9296 27.2867 84.3772 26.8392 84.601 26.2238C84.8247 25.5804 84.9366 24.6993 84.9366 23.5804V5.24476C84.9366 4.23776 84.8247 3.4965 84.601 3.02098C84.4052 2.51748 83.9716 2.16783 83.3003 1.97203C82.6569 1.77623 81.6499 1.66434 80.2793 1.63637V0C80.9227 0.027972 81.7618 0.0559437 82.7968 0.0839157C83.8317 0.111888 84.9646 0.125875 86.1954 0.125875C87.2583 0.125875 88.2233 0.111888 89.0905 0.0839157C89.9856 0.0559437 90.7548 0.027972 91.3982 0L104.321 19.6783H104.951V6.25175C104.951 5.07692 104.825 4.16783 104.573 3.52448C104.349 2.88112 103.874 2.41958 103.146 2.13986C102.447 1.86014 101.356 1.69231 99.8737 1.63637V0C100.461 0.027972 101.272 0.0559437 102.307 0.0839157C103.342 0.111888 104.447 0.125875 105.622 0.125875C106.825 0.125875 107.916 0.111888 108.895 0.0839157C109.902 0.0559437 110.699 0.027972 111.286 0V1.63637C109.972 1.69231 108.979 1.86014 108.307 2.13986C107.664 2.41958 107.216 2.86713 106.965 3.48252C106.741 4.0979 106.629 4.97902 106.629 6.12587V30H104.657Z" fill="white"/>
<path d="M116.287 29.8531V28.2168C117.658 28.1608 118.665 28.0489 119.308 27.8811C119.979 27.7133 120.413 27.3776 120.609 26.8741C120.833 26.3706 120.944 25.6154 120.944 24.6084V5.39161C120.944 4.38461 120.833 3.64335 120.609 3.16783C120.413 2.66433 119.979 2.31468 119.308 2.11888C118.665 1.92308 117.658 1.81119 116.287 1.78322V0.146851C117.798 0.174823 119.756 0.202794 122.161 0.230766C124.595 0.258738 127.434 0.272725 130.679 0.272725C131.826 0.272725 132.93 0.272725 133.993 0.272725C135.084 0.244753 136.105 0.230766 137.056 0.230766C138.007 0.202794 138.861 0.174823 139.616 0.146851C139.644 1.62937 139.714 3.0979 139.826 4.55244C139.937 6.00699 140.105 7.44755 140.329 8.87412H138.651C138.259 7.13986 137.77 5.76923 137.182 4.76224C136.623 3.72727 135.896 3 135 2.58042C134.133 2.13287 133.056 1.90909 131.77 1.90909H126.483V24.9441C126.483 25.8112 126.553 26.4825 126.693 26.958C126.861 27.4336 127.168 27.7413 127.616 27.8811C128.091 28.021 128.791 28.0909 129.714 28.0909H131.098C132.777 28.0909 134.175 27.8112 135.294 27.2517C136.441 26.6923 137.406 25.7692 138.189 24.4825C139 23.1678 139.742 21.3916 140.413 19.1538H142.133C141.909 21.028 141.742 22.8462 141.63 24.6084C141.518 26.3427 141.476 28.0909 141.504 29.8531C140.161 29.7972 138.595 29.7692 136.805 29.7692C135.014 29.7413 132.916 29.7273 130.511 29.7273C127.322 29.7273 124.525 29.7413 122.119 29.7692C119.742 29.7692 117.798 29.7972 116.287 29.8531ZM125.14 15.7133V14.1189H132.651V15.7133H125.14ZM133.951 21.1259C133.812 19.8112 133.56 18.7622 133.196 17.979C132.861 17.1958 132.357 16.6224 131.686 16.2587C131.042 15.8951 130.217 15.7133 129.21 15.7133V14.1189C130.609 14.1189 131.672 13.6853 132.399 12.8182C133.126 11.951 133.588 10.5804 133.784 8.70629H135.336C135.224 10.3287 135.168 11.5874 135.168 12.4825C135.196 13.3776 135.21 14.1888 135.21 14.9161C135.21 15.5035 135.21 16.0909 135.21 16.6783C135.238 17.2378 135.266 17.8811 135.294 18.6084C135.35 19.3077 135.406 20.1469 135.462 21.1259H133.951Z" fill="white"/>
<path d="M0.715909 52L2.40625 41.8182H3.33594L1.7848 51.1648H6.63707L6.49787 52H0.715909ZM17.6275 41.8182H18.5572L17.4435 48.5597C17.3275 49.2524 17.0624 49.8722 16.6481 50.419C16.2338 50.9626 15.7101 51.3918 15.077 51.7067C14.4473 52.0182 13.7496 52.174 12.984 52.174C12.2217 52.174 11.577 52.0166 11.0501 51.7017C10.5231 51.3868 10.1419 50.9576 9.90659 50.4141C9.67127 49.8705 9.61161 49.2524 9.72761 48.5597L10.8413 41.8182H11.7709L10.6623 48.495C10.5761 49.0353 10.6175 49.5175 10.7866 49.9418C10.9556 50.3627 11.2373 50.6941 11.6317 50.9361C12.0295 51.178 12.5233 51.299 13.1133 51.299C13.7065 51.299 14.2435 51.178 14.7241 50.9361C15.208 50.6941 15.6057 50.3627 15.9172 49.9418C16.2321 49.5175 16.4343 49.0353 16.5238 48.495L17.6275 41.8182ZM21.9733 41.8182L24.0614 46.2379H24.126L27.6708 41.8182H28.7794L24.6679 46.9091L27.0891 52H26.0003L23.9123 47.63H23.8476L20.3029 52H19.1892L23.3704 46.9091L20.8796 41.8182H21.9733ZM37.8881 41.8182H38.8178L37.7041 48.5597C37.5881 49.2524 37.323 49.8722 36.9087 50.419C36.4944 50.9626 35.9707 51.3918 35.3377 51.7067C34.7079 52.0182 34.0103 52.174 33.2446 52.174C32.4823 52.174 31.8377 52.0166 31.3107 51.7017C30.7837 51.3868 30.4025 50.9576 30.1672 50.4141C29.9319 49.8705 29.8722 49.2524 29.9882 48.5597L31.1019 41.8182H32.0316L30.9229 48.495C30.8367 49.0353 30.8782 49.5175 31.0472 49.9418C31.2162 50.3627 31.4979 50.6941 31.8924 50.9361C32.2901 51.178 32.7839 51.299 33.3739 51.299C33.9672 51.299 34.5041 51.178 34.9847 50.9361C35.4686 50.6941 35.8663 50.3627 36.1779 49.9418C36.4927 49.5175 36.6949 49.0353 36.7844 48.495L37.8881 41.8182ZM40.3895 52L42.0798 41.8182H45.3661C46.0886 41.8182 46.6703 41.9474 47.1111 42.206C47.5552 42.4645 47.8618 42.8241 48.0308 43.2848C48.2032 43.7422 48.2413 44.2692 48.1452 44.8658C48.0458 45.4557 47.8336 45.9777 47.5088 46.4318C47.1873 46.8859 46.7631 47.2422 46.2361 47.5007C45.7091 47.7559 45.0877 47.8835 44.3717 47.8835H41.5777L41.7219 47.0334H44.4911C45.0247 47.0334 45.4821 46.9455 45.8632 46.7699C46.2444 46.5942 46.5493 46.344 46.778 46.0192C47.0067 45.6944 47.1575 45.3099 47.2304 44.8658C47.3033 44.4183 47.2785 44.0289 47.1558 43.6974C47.0365 43.366 46.8145 43.1091 46.4896 42.9268C46.1682 42.7446 45.7389 42.6534 45.202 42.6534H42.8703L41.3192 52H40.3895ZM45.6395 47.4062L47.3845 52H46.3156L44.6004 47.4062H45.6395ZM50.1345 41.8182H51.1935L53.4158 46.6506H53.5152L57.3284 41.8182H58.4072L53.7737 47.5902L53.0429 52H52.1182L52.844 47.5902L50.1345 41.8182ZM63.5207 52L65.211 41.8182H66.1407L65.3651 46.4865H71.1421L71.9177 41.8182H72.8474L71.157 52H70.2273L71.0029 47.3217H65.2259L64.4504 52H63.5207ZM74.4315 52H73.4571L78.8513 41.8182H79.8456L81.8591 52H80.8847L79.1893 43.0263H79.1247L74.4315 52ZM75.7838 48.0973H80.8349L80.6957 48.9325H75.6446L75.7838 48.0973ZM93.7841 41.8182L92.0938 52H91.189L86.5902 43.4737H86.5107L85.0938 52H84.1641L85.8545 41.8182H86.7543L91.3679 50.3544H91.4475L92.8694 41.8182H93.7841ZM98.3686 52H95.3608L97.0512 41.8182H100.188C101.156 41.8182 101.955 42.0237 102.585 42.4347C103.214 42.8456 103.652 43.4339 103.897 44.1996C104.142 44.9619 104.175 45.8733 103.996 46.9339C103.821 47.9946 103.484 48.9027 102.987 49.6584C102.49 50.4141 101.85 50.9941 101.068 51.3984C100.289 51.7995 99.3895 52 98.3686 52ZM96.4297 51.1648H98.4184C99.2867 51.1648 100.046 50.9891 100.695 50.6378C101.345 50.2865 101.874 49.7876 102.281 49.1413C102.689 48.4917 102.966 47.7211 103.112 46.8295C103.257 45.9545 103.241 45.2055 103.062 44.5824C102.886 43.9593 102.546 43.482 102.043 43.1506C101.542 42.8191 100.878 42.6534 100.049 42.6534H97.8367L96.4297 51.1648ZM105.97 52L107.66 41.8182H111.095C111.758 41.8182 112.292 41.9342 112.696 42.1662C113.101 42.3982 113.379 42.7147 113.531 43.1158C113.687 43.5168 113.72 43.9725 113.631 44.483C113.561 44.9072 113.43 45.2701 113.238 45.5717C113.046 45.87 112.812 46.1136 112.537 46.3026C112.265 46.4882 111.972 46.6224 111.657 46.7053L111.642 46.7848C111.967 46.808 112.267 46.924 112.542 47.1328C112.817 47.3383 113.023 47.6267 113.159 47.9979C113.298 48.3691 113.326 48.8132 113.243 49.3303C113.157 49.844 112.965 50.303 112.666 50.7074C112.371 51.1084 111.967 51.425 111.453 51.657C110.943 51.8857 110.323 52 109.594 52H105.97ZM107.039 51.1648H109.733C110.519 51.1648 111.129 50.9908 111.563 50.6428C111.997 50.2947 112.26 49.8572 112.353 49.3303C112.416 48.9425 112.38 48.5911 112.244 48.2763C112.108 47.9581 111.886 47.7062 111.578 47.5206C111.269 47.335 110.887 47.2422 110.429 47.2422H107.695L107.039 51.1648ZM107.834 46.4169H110.424C110.825 46.4169 111.19 46.334 111.518 46.1683C111.846 46.0026 112.118 45.7739 112.333 45.4822C112.549 45.1906 112.686 44.8575 112.746 44.483C112.839 43.9427 112.738 43.5036 112.443 43.1655C112.151 42.8241 111.656 42.6534 110.956 42.6534H108.45L107.834 46.4169ZM115.609 52H114.635L120.029 41.8182H121.023L123.037 52H122.062L120.367 43.0263H120.302L115.609 52ZM116.961 48.0973H122.012L121.873 48.9325H116.822L116.961 48.0973ZM133.056 45C133.023 44.6586 132.947 44.3404 132.828 44.0455C132.708 43.7472 132.541 43.487 132.325 43.2649C132.11 43.0428 131.843 42.8688 131.525 42.7429C131.21 42.617 130.839 42.554 130.411 42.554C129.778 42.554 129.165 42.7214 128.572 43.0561C127.982 43.3909 127.47 43.883 127.036 44.5327C126.605 45.179 126.311 45.9711 126.156 46.9091C126.003 47.8272 126.018 48.611 126.2 49.2607C126.383 49.9103 126.706 50.4074 127.17 50.7521C127.634 51.0935 128.212 51.2642 128.905 51.2642C129.528 51.2642 130.108 51.125 130.645 50.8466C131.182 50.5649 131.634 50.1655 132.002 49.6484C132.37 49.1314 132.609 48.5182 132.718 47.8089L132.997 47.9034H129.735L129.889 47.0682H133.752L133.598 47.9034C133.459 48.7751 133.162 49.5275 132.708 50.1605C132.254 50.7936 131.691 51.2824 131.018 51.6271C130.345 51.9685 129.613 52.1392 128.82 52.1392C127.932 52.1392 127.19 51.9254 126.593 51.4979C126 51.067 125.584 50.4605 125.345 49.6783C125.107 48.8961 125.077 47.973 125.256 46.9091C125.382 46.1103 125.604 45.3894 125.922 44.7464C126.24 44.1035 126.631 43.5549 127.095 43.1009C127.563 42.6435 128.083 42.2921 128.656 42.0469C129.233 41.8016 129.843 41.679 130.486 41.679C131.043 41.679 131.538 41.7668 131.972 41.9425C132.407 42.1181 132.775 42.3601 133.076 42.6683C133.378 42.9732 133.606 43.3262 133.762 43.7273C133.921 44.125 134.004 44.5492 134.011 45H133.056ZM142.586 44.4183C142.609 43.8217 142.432 43.3544 142.054 43.0163C141.68 42.6783 141.154 42.5092 140.478 42.5092C140.008 42.5092 139.577 42.5921 139.186 42.7578C138.798 42.9202 138.478 43.1439 138.226 43.429C137.978 43.714 137.823 44.0388 137.764 44.4034C137.721 44.6719 137.741 44.9072 137.823 45.1094C137.906 45.3082 138.034 45.4806 138.206 45.6264C138.379 45.7723 138.576 45.8965 138.798 45.9993C139.023 46.102 139.252 46.1882 139.484 46.2578L140.513 46.5661C140.818 46.6555 141.121 46.7699 141.423 46.9091C141.725 47.0483 141.993 47.2223 142.228 47.4311C142.464 47.6399 142.638 47.8968 142.75 48.2017C142.866 48.5066 142.89 48.8712 142.82 49.2955C142.727 49.8456 142.505 50.3378 142.154 50.772C141.806 51.2029 141.348 51.5443 140.782 51.7962C140.215 52.0481 139.56 52.174 138.818 52.174C138.125 52.174 137.542 52.0597 137.068 51.831C136.594 51.599 136.244 51.2791 136.019 50.8714C135.793 50.4638 135.707 49.9915 135.76 49.4545H136.715C136.678 49.8556 136.753 50.1953 136.939 50.4737C137.127 50.7521 137.396 50.9643 137.744 51.1101C138.095 51.2526 138.5 51.3239 138.957 51.3239C139.464 51.3239 139.93 51.2393 140.354 51.0703C140.778 50.898 141.128 50.6593 141.403 50.3544C141.681 50.0462 141.854 49.6882 141.92 49.2805C141.98 48.9358 141.938 48.6458 141.796 48.4105C141.657 48.1752 141.439 47.978 141.145 47.8189C140.853 47.6565 140.505 47.514 140.1 47.3913L138.937 47.0334C138.178 46.8014 137.613 46.4749 137.242 46.054C136.874 45.633 136.743 45.0961 136.849 44.4432C136.942 43.893 137.169 43.4107 137.53 42.9964C137.895 42.5788 138.347 42.254 138.887 42.022C139.428 41.79 140.011 41.674 140.637 41.674C141.27 41.674 141.809 41.7917 142.253 42.027C142.701 42.2623 143.032 42.5871 143.247 43.0014C143.466 43.4124 143.547 43.8847 143.491 44.4183H142.586Z" fill="white"/>
</svg>
